<?xml version="1.0" encoding="UTF-8" standalone="no"?>
<!-- Created with Inkscape (http://www.inkscape.org/) -->

<svg
   xmlns:dc="http://purl.org/dc/elements/1.1/"
   xmlns:cc="http://creativecommons.org/ns#"
   xmlns:rdf="http://www.w3.org/1999/02/22-rdf-syntax-ns#"
   xmlns:svg="http://www.w3.org/2000/svg"
   xmlns="http://www.w3.org/2000/svg"
   xmlns:sodipodi="http://sodipodi.sourceforge.net/DTD/sodipodi-0.dtd"
   xmlns:inkscape="http://www.inkscape.org/namespaces/inkscape"
   width="210mm"
   height="297mm"
   id="svg2879"
   version="1.1"
   inkscape:version="0.47pre4 r22446"
   sodipodi:docname="Nuevo documento 2">
  <defs
     id="defs2881">
    <inkscape:perspective
       sodipodi:type="inkscape:persp3d"
       inkscape:vp_x="0 : 526.18109 : 1"
       inkscape:vp_y="0 : 1000 : 0"
       inkscape:vp_z="744.09448 : 526.18109 : 1"
       inkscape:persp3d-origin="372.04724 : 350.78739 : 1"
       id="perspective2887" />
    <inkscape:perspective
       id="perspective2863"
       inkscape:persp3d-origin="0.5 : 0.33333333 : 1"
       inkscape:vp_z="1 : 0.5 : 1"
       inkscape:vp_y="0 : 1000 : 0"
       inkscape:vp_x="0 : 0.5 : 1"
       sodipodi:type="inkscape:persp3d" />
  </defs>
  <sodipodi:namedview
     id="base"
     pagecolor="#ffffff"
     bordercolor="#666666"
     borderopacity="1.0"
     inkscape:pageopacity="0.0"
     inkscape:pageshadow="2"
     inkscape:zoom="2.4413657"
     inkscape:cx="382.85712"
     inkscape:cy="517.14283"
     inkscape:document-units="px"
     inkscape:current-layer="layer1"
     showgrid="false"
     inkscape:window-width="1680"
     inkscape:window-height="967"
     inkscape:window-x="0"
     inkscape:window-y="26"
     inkscape:window-maximized="1" />
  <metadata
     id="metadata2884">
    <rdf:RDF>
      <cc:Work
         rdf:about="">
        <dc:format>image/svg+xml</dc:format>
        <dc:type
           rdf:resource="http://purl.org/dc/dcmitype/StillImage" />
        <dc:title></dc:title>
      </cc:Work>
    </rdf:RDF>
  </metadata>
  <g
     inkscape:label="Capa 1"
     inkscape:groupmode="layer"
     id="layer1">
    <g
       id="g4956"
       transform="matrix(2.2938855,0,0,2.2938855,-229.44753,176.85567)">
      <g
         transform="translate(-201.82247,-592.00807)"
         id="g4927">
        <path
           style="fill:none;stroke:#0f814c;stroke-width:3.05599999;stroke-linecap:butt;stroke-linejoin:miter;stroke-miterlimit:4;stroke-opacity:1;stroke-dasharray:none"
           d="m 347.77101,776.36218 c 15.15229,-78.53936 15.02602,-79.4691 15.02602,-79.4691 l 45.20432,-0.25253 -3.28299,16.92005 -26.76905,0 -2.03431,13.13841 26.35529,0.25254 -3.21237,17.4187 -26.82228,0 -2.65165,12.59534 27.06847,0.1339 -3.3678,19.21684 -45.51365,0.0458 z"
           id="path2495"
           sodipodi:nodetypes="ccccccccccccc" />
        <path
           sodipodi:nodetypes="ccccccccccccc"
           id="path2503"
           d="m 352.46814,772.01254 c 12.55099,-64.82456 12.97034,-71.15077 12.97034,-71.15077 l 37.53382,0.0148 -1.51426,8.41663 -26.879,1e-5 -3.95585,21.60306 26.66375,0.0745 -1.63399,9.22999 -27.26305,-0.25478 -4.15289,21.93664 27.30957,-0.011 -1.84594,10.11148 -37.2325,0.0294 z"
           style="fill:#0f814c;fill-opacity:1;fill-rule:evenodd;stroke:#0f814c;stroke-width:0.82499999;stroke-linecap:butt;stroke-linejoin:miter;stroke-miterlimit:4;stroke-opacity:1;stroke-dasharray:none" />
      </g>
      <path
         sodipodi:nodetypes="cssscc"
         id="path4839"
         d="m 206.17753,104.70719 c 0,0 20.8394,-0.22063 21.3618,-0.053 18.35538,5.88825 17.88191,23.67832 14.384,38.95206 -5.40667,23.60847 -9.23159,41.10463 -29.30542,40.76631 -3.96661,-0.0669 -21.48386,-0.0773 -21.48386,-0.0773 l 15.04348,-79.58803 z"
         style="fill:none;stroke:#0f814c;stroke-width:3.05599999;stroke-linecap:butt;stroke-linejoin:miter;stroke-miterlimit:4;stroke-opacity:1;stroke-dasharray:none" />
      <path
         style="fill:#0f814c;fill-opacity:1;fill-rule:evenodd;stroke:none"
         d="m 209.08915,108.47377 c 0,0 14.86457,-0.0402 15.08838,-0.0128 17.95211,2.18923 17.08595,21.98078 14.14878,35.55168 -4.53994,20.97639 -9.39897,37.63281 -27.62114,36.3621 -3.37913,-0.23564 -14.75301,-0.0335 -14.75301,-0.0335 l 13.13699,-71.8675 z"
         id="path4851"
         sodipodi:nodetypes="cssscc" />
      <path
         sodipodi:nodetypes="cssscc"
         id="path4853"
         d="m 216.68394,117.37004 c 0,0 5.7896,-0.4093 7.14315,-0.0735 9.59854,2.38125 7.33256,18.12819 6.42823,26.27185 -0.89642,8.07249 -8.34066,25.26036 -15.39041,26.27216 -1.48829,0.2136 -8.68738,0.0299 -8.68738,0.0299 l 10.50641,-52.50043 z"
         style="fill:#ffffff;fill-opacity:1;fill-rule:evenodd;stroke:#0f814c;stroke-width:0.82499999;stroke-linecap:butt;stroke-linejoin:miter;stroke-miterlimit:4;stroke-opacity:1;stroke-dasharray:none" />
      <g
         transform="translate(-201.82247,-592.00807)"
         id="g4904">
        <path
           sodipodi:nodetypes="ccccc"
           id="path4869"
           d="m 329.4813,776.33799 c 14.66122,-79.47686 14.83979,-79.56615 14.83979,-79.56615 l 18.26235,0.0153 -14.82446,79.57501 -18.27768,-0.0242 z"
           style="fill:none;stroke:#0f814c;stroke-width:3.05599999;stroke-linecap:butt;stroke-linejoin:miter;stroke-miterlimit:4;stroke-opacity:1;stroke-dasharray:none" />
        <path
           style="fill:#0f814c;fill-opacity:1;fill-rule:evenodd;stroke:#0f814c;stroke-width:0.82499999;stroke-linecap:butt;stroke-linejoin:miter;stroke-miterlimit:4;stroke-opacity:1;stroke-dasharray:none"
           d="m 334.23549,771.99339 c 12.55099,-64.82456 13.27836,-71.0696 13.27836,-71.0696 l 10.64399,-0.0203 c 0,0 -5.76004,31.10635 -5.77496,30.94565 0.10672,0.0286 -7.42736,40.15749 -7.42736,40.15749 l -10.72003,-0.0132 z"
           id="path4877"
           sodipodi:nodetypes="cccccc" />
      </g>
    </g>
    <text
       xml:space="preserve"
       style="font-size:138.39059448px;font-style:italic;font-variant:normal;font-weight:bold;font-stretch:normal;text-align:start;line-height:100%;writing-mode:lr-tb;text-anchor:start;fill:#000000;fill-opacity:1;stroke:none;font-family:URW Chancery L;-inkscape-font-specification:URW Chancery L Bold Italic"
       x="656.28717"
       y="364.66449"
       id="text4952"
       sodipodi:linespacing="100%"
       transform="matrix(0.6069182,0,-0.2706623,1.6476685,0,0)"><tspan
         sodipodi:role="line"
         id="tspan4954"
         x="656.28717"
         y="364.66449">Configurator</tspan></text>
  </g>
</svg>
